<svg width="540" height="160" viewBox="0 0 540 160" fill="none" xmlns="http://www.w3.org/2000/svg">
<path d="M20 2H520C529.941 2 538 10.0589 538 20V140C538 149.941 529.941 158 520 158H20C10.0589 158 2 149.941 2 140V20C2 10.0589 10.0589 2 20 2Z" fill="#040404" stroke="#989898" stroke-width="4"/>
<path d="M38 39.8638V118.614C38.005 120.402 38.7178 122.116 39.9826 123.381C41.2474 124.646 42.9613 125.359 44.75 125.364H130.25C132.039 125.359 133.753 124.646 135.017 123.381C136.282 122.116 136.995 120.402 137 118.614V39.8638H38ZM98.75 57.8638H76.25C75.0565 57.8638 73.9119 57.3897 73.068 56.5458C72.2241 55.7018 71.75 54.5572 71.75 53.3638C71.75 52.1703 72.2241 51.0257 73.068 50.1818C73.9119 49.3379 75.0565 48.8638 76.25 48.8638H98.75C99.9435 48.8638 101.088 49.3379 101.932 50.1818C102.776 51.0257 103.25 52.1703 103.25 53.3638C103.25 54.5572 102.776 55.7018 101.932 56.5458C101.088 57.3897 99.9435 57.8638 98.75 57.8638Z" fill="#EEEEEE"/>
<mask id="mask0_321_5255" style="mask-type:alpha" maskUnits="userSpaceOnUse" x="41" y="66" width="91" height="60">
<rect x="41.7" y="66.4629" width="89.6" height="58.9" fill="#C4C4C4"/>
</mask>
<g mask="url(#mask0_321_5255)">
<mask id="mask1_321_5255" style="mask-type:alpha" maskUnits="userSpaceOnUse" x="44" y="75" width="87" height="87">
<circle cx="87.4998" cy="118.663" r="42.7" fill="#C4C4C4"/>
</mask>
<g mask="url(#mask1_321_5255)">
<path d="M51.5391 75.8638V128.328H70.6701L87.5001 99.1798H130.25V75.8638H51.5391ZM51.5391 75.8638V128.328H70.6701L87.5001 99.1798H130.25V75.8638H51.5391Z" fill="#DB4437"/>
<path d="M44.7502 161.363H85.4412L104.33 142.474V128.333L70.6702 128.327L44.7502 83.873V161.363ZM44.7502 161.363H85.4412L104.33 142.474V128.333L70.6702 128.327L44.7502 83.873V161.363Z" fill="#0F9D58"/>
<path d="M87.5003 99.1792L104.33 128.327L85.4473 161.363H130.247V99.1792H87.5003ZM87.5003 99.1792L104.33 128.327L85.4473 161.363H130.247V99.1792H87.5003Z" fill="#FFCD40"/>
<path d="M87.5004 138.047C98.2335 138.047 106.934 129.346 106.934 118.613C106.934 107.88 98.2335 99.1792 87.5004 99.1792C76.7673 99.1792 68.0664 107.88 68.0664 118.613C68.0664 129.346 76.7673 138.047 87.5004 138.047Z" fill="#F1F1F1"/>
<path d="M87.5004 134.16C96.0867 134.16 103.047 127.2 103.047 118.613C103.047 110.027 96.0867 103.066 87.5004 103.066C78.914 103.066 71.9534 110.027 71.9534 118.613C71.9534 127.2 78.914 134.16 87.5004 134.16Z" fill="#4285F4"/>
</g>
</g>
<path d="M38 82.0513H137V82.6133H38V82.0513Z" fill="#212121" fill-opacity="0.02"/>
<path d="M38 82.6128H137V83.1748H38V82.6128Z" fill="white" fill-opacity="0.05"/>
<path d="M98.75 57.8633H76.25C75.106 57.8633 74.005 57.4268 73.1719 56.6427C72.3388 55.8587 71.8363 54.7862 71.767 53.6443C71.7559 53.7375 71.7502 53.8314 71.75 53.9253C71.75 55.1188 72.2241 56.2633 73.068 57.1073C73.9119 57.9512 75.0565 58.4253 76.25 58.4253H98.75C99.9435 58.4253 101.088 57.9512 101.932 57.1073C102.776 56.2633 103.25 55.1188 103.25 53.9253C103.25 53.8314 103.244 53.7375 103.233 53.6443C103.164 54.7862 102.661 55.8587 101.828 56.6427C100.995 57.4268 99.894 57.8633 98.75 57.8633V57.8633ZM38 39.8633V40.4253H137V39.8633H38Z" fill="#212121" fill-opacity="0.02"/>
<path d="M76.25 48.8628H98.75C99.894 48.8627 100.995 49.2993 101.828 50.0833C102.661 50.8674 103.164 51.9398 103.233 53.0818C103.239 52.9818 103.25 52.8958 103.25 52.8008C103.25 51.6073 102.776 50.4627 101.932 49.6188C101.088 48.7749 99.9435 48.3008 98.75 48.3008H76.25C75.0565 48.3008 73.9119 48.7749 73.068 49.6188C72.2241 50.4627 71.75 51.6073 71.75 52.8008C71.7502 52.8947 71.7559 52.9885 71.767 53.0818C71.8363 51.9398 72.3388 50.8674 73.1719 50.0833C74.005 49.2993 75.106 48.8627 76.25 48.8628V48.8628ZM130.25 124.801H44.75C42.9614 124.796 41.2476 124.083 39.9829 122.818C38.7181 121.553 38.0053 119.839 38 118.051V118.613C38.005 120.401 38.7178 122.115 39.9826 123.38C41.2474 124.645 42.9613 125.358 44.75 125.363H130.25C132.039 125.358 133.753 124.645 135.017 123.38C136.282 122.115 136.995 120.401 137 118.613V118.051C136.995 119.839 136.282 121.553 135.017 122.818C133.752 124.083 132.039 124.796 130.25 124.801V124.801Z" fill="#231F20" fill-opacity="0.1"/>
<path d="M38 39.8633V118.613C38.005 120.402 38.7178 122.116 39.9826 123.381C41.2474 124.645 42.9613 125.358 44.75 125.363H130.25C132.039 125.358 133.753 124.645 135.017 123.381C136.282 122.116 136.995 120.402 137 118.613V39.8633H38ZM98.75 57.8633H76.25C75.0565 57.8633 73.9119 57.3892 73.068 56.5453C72.2241 55.7013 71.75 54.5568 71.75 53.3633C71.75 52.1698 72.2241 51.0252 73.068 50.1813C73.9119 49.3374 75.0565 48.8633 76.25 48.8633H98.75C99.9435 48.8633 101.088 49.3374 101.932 50.1813C102.776 51.0252 103.25 52.1698 103.25 53.3633C103.25 54.5568 102.776 55.7013 101.932 56.5453C101.088 57.3892 99.9435 57.8633 98.75 57.8633Z" fill="url(#paint0_radial_321_5255)"/>
<path d="M178.672 109.279H183.799C183.635 111.234 183.088 112.978 182.158 114.509C181.229 116.026 179.923 117.223 178.241 118.098C176.56 118.973 174.516 119.41 172.109 119.41C170.264 119.41 168.603 119.082 167.126 118.426C165.649 117.756 164.385 116.812 163.332 115.596C162.279 114.365 161.473 112.882 160.912 111.146C160.365 109.409 160.092 107.468 160.092 105.321V102.84C160.092 100.693 160.372 98.752 160.933 97.0156C161.507 95.2793 162.327 93.7959 163.394 92.5654C164.46 91.3213 165.738 90.3711 167.229 89.7148C168.732 89.0586 170.421 88.7305 172.294 88.7305C174.673 88.7305 176.683 89.168 178.323 90.043C179.964 90.918 181.235 92.1279 182.138 93.6729C183.054 95.2178 183.614 96.9883 183.819 98.9844H178.692C178.556 97.6992 178.255 96.5986 177.79 95.6826C177.339 94.7666 176.669 94.0693 175.78 93.5908C174.892 93.0986 173.729 92.8525 172.294 92.8525C171.118 92.8525 170.093 93.0713 169.218 93.5088C168.343 93.9463 167.611 94.5889 167.023 95.4365C166.436 96.2842 165.991 97.3301 165.69 98.5742C165.403 99.8047 165.26 101.213 165.26 102.799V105.321C165.26 106.825 165.39 108.192 165.649 109.423C165.923 110.64 166.333 111.686 166.88 112.561C167.44 113.436 168.151 114.112 169.013 114.591C169.874 115.069 170.906 115.309 172.109 115.309C173.572 115.309 174.755 115.076 175.657 114.611C176.573 114.146 177.264 113.47 177.729 112.581C178.207 111.679 178.521 110.578 178.672 109.279ZM192.863 87.5V119H187.941V87.5H192.863ZM192.002 107.085L190.402 107.064C190.416 105.533 190.628 104.118 191.038 102.819C191.462 101.521 192.05 100.393 192.802 99.4355C193.567 98.4648 194.483 97.7197 195.55 97.2002C196.616 96.667 197.799 96.4004 199.098 96.4004C200.191 96.4004 201.176 96.5508 202.051 96.8516C202.939 97.1523 203.705 97.6377 204.348 98.3076C204.99 98.9639 205.476 99.8252 205.804 100.892C206.146 101.944 206.316 103.229 206.316 104.747V119H201.354V104.706C201.354 103.64 201.196 102.792 200.882 102.163C200.581 101.534 200.137 101.083 199.549 100.81C198.961 100.522 198.243 100.379 197.396 100.379C196.507 100.379 195.721 100.557 195.037 100.912C194.367 101.268 193.807 101.753 193.355 102.368C192.904 102.983 192.562 103.694 192.33 104.501C192.111 105.308 192.002 106.169 192.002 107.085ZM216.283 101.035V119H211.341V96.8105H216.058L216.283 101.035ZM223.071 96.667L223.03 101.261C222.729 101.206 222.401 101.165 222.046 101.138C221.704 101.11 221.362 101.097 221.021 101.097C220.173 101.097 219.428 101.22 218.785 101.466C218.143 101.698 217.603 102.04 217.165 102.491C216.741 102.929 216.413 103.462 216.181 104.091C215.948 104.72 215.812 105.424 215.771 106.203L214.643 106.285C214.643 104.891 214.779 103.599 215.053 102.409C215.326 101.22 215.736 100.174 216.283 99.2715C216.844 98.3691 217.541 97.665 218.375 97.1592C219.223 96.6533 220.2 96.4004 221.308 96.4004C221.608 96.4004 221.93 96.4277 222.271 96.4824C222.627 96.5371 222.894 96.5986 223.071 96.667ZM224.691 108.151V107.68C224.691 106.08 224.924 104.597 225.389 103.229C225.854 101.849 226.523 100.652 227.398 99.6406C228.287 98.6152 229.367 97.8223 230.639 97.2617C231.924 96.6875 233.373 96.4004 234.986 96.4004C236.613 96.4004 238.062 96.6875 239.334 97.2617C240.619 97.8223 241.706 98.6152 242.595 99.6406C243.483 100.652 244.16 101.849 244.625 103.229C245.09 104.597 245.322 106.08 245.322 107.68V108.151C245.322 109.751 245.09 111.234 244.625 112.602C244.16 113.969 243.483 115.165 242.595 116.19C241.706 117.202 240.626 117.995 239.354 118.569C238.083 119.13 236.641 119.41 235.027 119.41C233.4 119.41 231.944 119.13 230.659 118.569C229.388 117.995 228.308 117.202 227.419 116.19C226.53 115.165 225.854 113.969 225.389 112.602C224.924 111.234 224.691 109.751 224.691 108.151ZM229.634 107.68V108.151C229.634 109.149 229.736 110.093 229.941 110.981C230.146 111.87 230.468 112.649 230.905 113.319C231.343 113.989 231.903 114.516 232.587 114.898C233.271 115.281 234.084 115.473 235.027 115.473C235.943 115.473 236.736 115.281 237.406 114.898C238.09 114.516 238.65 113.989 239.088 113.319C239.525 112.649 239.847 111.87 240.052 110.981C240.271 110.093 240.38 109.149 240.38 108.151V107.68C240.38 106.695 240.271 105.766 240.052 104.891C239.847 104.002 239.519 103.216 239.067 102.532C238.63 101.849 238.069 101.315 237.386 100.933C236.716 100.536 235.916 100.338 234.986 100.338C234.057 100.338 233.25 100.536 232.566 100.933C231.896 101.315 231.343 101.849 230.905 102.532C230.468 103.216 230.146 104.002 229.941 104.891C229.736 105.766 229.634 106.695 229.634 107.68ZM254.407 101.322V119H249.465V96.8105H254.12L254.407 101.322ZM253.607 107.085L251.926 107.064C251.926 105.533 252.117 104.118 252.5 102.819C252.883 101.521 253.443 100.393 254.182 99.4355C254.92 98.4648 255.836 97.7197 256.93 97.2002C258.037 96.667 259.315 96.4004 260.765 96.4004C261.776 96.4004 262.699 96.5508 263.533 96.8516C264.381 97.1387 265.112 97.5967 265.728 98.2256C266.356 98.8545 266.835 99.6611 267.163 100.646C267.505 101.63 267.676 102.819 267.676 104.214V119H262.733V104.645C262.733 103.564 262.569 102.717 262.241 102.102C261.927 101.486 261.469 101.049 260.867 100.789C260.279 100.516 259.575 100.379 258.755 100.379C257.825 100.379 257.032 100.557 256.376 100.912C255.733 101.268 255.207 101.753 254.797 102.368C254.387 102.983 254.086 103.694 253.895 104.501C253.703 105.308 253.607 106.169 253.607 107.085ZM267.368 105.772L265.051 106.285C265.051 104.945 265.235 103.681 265.604 102.491C265.987 101.288 266.541 100.235 267.266 99.333C268.004 98.417 268.913 97.6992 269.993 97.1797C271.073 96.6602 272.311 96.4004 273.705 96.4004C274.84 96.4004 275.852 96.5576 276.74 96.8721C277.643 97.1729 278.408 97.6514 279.037 98.3076C279.666 98.9639 280.145 99.8184 280.473 100.871C280.801 101.91 280.965 103.168 280.965 104.645V119H276.002V104.624C276.002 103.503 275.838 102.635 275.51 102.02C275.195 101.404 274.744 100.98 274.156 100.748C273.568 100.502 272.864 100.379 272.044 100.379C271.278 100.379 270.602 100.522 270.014 100.81C269.439 101.083 268.954 101.473 268.558 101.979C268.161 102.471 267.86 103.038 267.655 103.681C267.464 104.323 267.368 105.021 267.368 105.772ZM295.833 119.41C294.192 119.41 292.709 119.144 291.383 118.61C290.07 118.063 288.949 117.305 288.02 116.334C287.104 115.363 286.399 114.222 285.907 112.909C285.415 111.597 285.169 110.182 285.169 108.664V107.844C285.169 106.107 285.422 104.535 285.928 103.127C286.434 101.719 287.138 100.516 288.04 99.5176C288.942 98.5059 290.009 97.7334 291.239 97.2002C292.47 96.667 293.803 96.4004 295.238 96.4004C296.824 96.4004 298.212 96.667 299.401 97.2002C300.591 97.7334 301.575 98.4854 302.354 99.4561C303.147 100.413 303.735 101.555 304.118 102.881C304.515 104.207 304.713 105.67 304.713 107.27V109.382H287.568V105.834H299.832V105.444C299.805 104.556 299.627 103.722 299.299 102.942C298.984 102.163 298.499 101.534 297.843 101.056C297.187 100.577 296.312 100.338 295.218 100.338C294.397 100.338 293.666 100.516 293.023 100.871C292.395 101.213 291.868 101.712 291.444 102.368C291.021 103.024 290.692 103.817 290.46 104.747C290.241 105.663 290.132 106.695 290.132 107.844V108.664C290.132 109.635 290.262 110.537 290.521 111.371C290.795 112.191 291.191 112.909 291.711 113.524C292.23 114.14 292.859 114.625 293.598 114.98C294.336 115.322 295.177 115.493 296.12 115.493C297.31 115.493 298.369 115.254 299.299 114.775C300.229 114.297 301.035 113.62 301.719 112.745L304.323 115.268C303.845 115.965 303.223 116.635 302.457 117.277C301.691 117.906 300.755 118.419 299.647 118.815C298.554 119.212 297.282 119.41 295.833 119.41ZM327.005 112.294L332.952 89.1406H336.069L335.721 95.1084L329.363 119H326.123L327.005 112.294ZM322.555 89.1406L327.374 112.109L327.805 119H324.359L317.448 89.1406H322.555ZM342.816 112.048L347.574 89.1406H352.701L345.79 119H342.345L342.816 112.048ZM337.279 89.1406L343.165 112.355L344.026 119H340.786L334.531 95.1084L334.203 89.1406H337.279ZM365.149 119.41C363.509 119.41 362.025 119.144 360.699 118.61C359.387 118.063 358.266 117.305 357.336 116.334C356.42 115.363 355.716 114.222 355.224 112.909C354.731 111.597 354.485 110.182 354.485 108.664V107.844C354.485 106.107 354.738 104.535 355.244 103.127C355.75 101.719 356.454 100.516 357.356 99.5176C358.259 98.5059 359.325 97.7334 360.556 97.2002C361.786 96.667 363.119 96.4004 364.555 96.4004C366.141 96.4004 367.528 96.667 368.718 97.2002C369.907 97.7334 370.892 98.4854 371.671 99.4561C372.464 100.413 373.052 101.555 373.435 102.881C373.831 104.207 374.029 105.67 374.029 107.27V109.382H356.885V105.834H369.148V105.444C369.121 104.556 368.943 103.722 368.615 102.942C368.301 102.163 367.815 101.534 367.159 101.056C366.503 100.577 365.628 100.338 364.534 100.338C363.714 100.338 362.982 100.516 362.34 100.871C361.711 101.213 361.185 101.712 360.761 102.368C360.337 103.024 360.009 103.817 359.776 104.747C359.558 105.663 359.448 106.695 359.448 107.844V108.664C359.448 109.635 359.578 110.537 359.838 111.371C360.111 112.191 360.508 112.909 361.027 113.524C361.547 114.14 362.176 114.625 362.914 114.98C363.652 115.322 364.493 115.493 365.437 115.493C366.626 115.493 367.686 115.254 368.615 114.775C369.545 114.297 370.352 113.62 371.035 112.745L373.64 115.268C373.161 115.965 372.539 116.635 371.773 117.277C371.008 117.906 370.071 118.419 368.964 118.815C367.87 119.212 366.599 119.41 365.149 119.41ZM377.905 87.5H382.848V114.263L382.376 119H377.905V87.5ZM397.326 107.7V108.131C397.326 109.771 397.142 111.282 396.772 112.663C396.417 114.03 395.87 115.22 395.132 116.231C394.407 117.243 393.505 118.029 392.425 118.59C391.358 119.137 390.121 119.41 388.713 119.41C387.332 119.41 386.129 119.15 385.104 118.631C384.078 118.111 383.217 117.373 382.52 116.416C381.836 115.459 381.282 114.317 380.858 112.991C380.435 111.665 380.134 110.202 379.956 108.603V107.229C380.134 105.615 380.435 104.152 380.858 102.84C381.282 101.514 381.836 100.372 382.52 99.415C383.217 98.4443 384.071 97.6992 385.083 97.1797C386.108 96.6602 387.305 96.4004 388.672 96.4004C390.094 96.4004 391.345 96.6738 392.425 97.2207C393.519 97.7676 394.428 98.5469 395.152 99.5586C395.877 100.557 396.417 101.746 396.772 103.127C397.142 104.508 397.326 106.032 397.326 107.7ZM392.384 108.131V107.7C392.384 106.702 392.302 105.766 392.138 104.891C391.974 104.002 391.7 103.223 391.317 102.553C390.948 101.883 390.442 101.356 389.8 100.974C389.171 100.577 388.385 100.379 387.441 100.379C386.566 100.379 385.814 100.529 385.186 100.83C384.557 101.131 384.03 101.541 383.606 102.061C383.183 102.58 382.848 103.182 382.602 103.865C382.369 104.549 382.212 105.287 382.13 106.08V109.792C382.253 110.817 382.513 111.761 382.909 112.622C383.319 113.47 383.894 114.153 384.632 114.673C385.37 115.179 386.32 115.432 387.482 115.432C388.398 115.432 389.171 115.247 389.8 114.878C390.429 114.509 390.928 113.996 391.297 113.34C391.68 112.67 391.953 111.891 392.117 111.002C392.295 110.113 392.384 109.156 392.384 108.131ZM428.17 111.31C428.17 110.694 428.074 110.147 427.883 109.669C427.705 109.19 427.384 108.753 426.919 108.356C426.454 107.96 425.798 107.577 424.95 107.208C424.116 106.825 423.05 106.436 421.751 106.039C420.329 105.602 419.017 105.116 417.813 104.583C416.624 104.036 415.585 103.407 414.696 102.696C413.808 101.972 413.117 101.145 412.625 100.215C412.133 99.2715 411.887 98.1846 411.887 96.9541C411.887 95.7373 412.14 94.6299 412.646 93.6318C413.165 92.6338 413.896 91.7725 414.84 91.0479C415.797 90.3096 416.925 89.7422 418.224 89.3457C419.522 88.9355 420.958 88.7305 422.53 88.7305C424.745 88.7305 426.652 89.1406 428.252 89.9609C429.865 90.7812 431.103 91.8818 431.964 93.2627C432.839 94.6436 433.276 96.168 433.276 97.8359H428.17C428.17 96.8516 427.958 95.9834 427.534 95.2314C427.124 94.4658 426.495 93.8643 425.647 93.4268C424.813 92.9893 423.754 92.7705 422.469 92.7705C421.252 92.7705 420.24 92.9551 419.434 93.3242C418.627 93.6934 418.025 94.1924 417.629 94.8213C417.232 95.4502 417.034 96.1611 417.034 96.9541C417.034 97.5146 417.164 98.0273 417.424 98.4922C417.684 98.9434 418.08 99.3672 418.613 99.7637C419.146 100.146 419.816 100.509 420.623 100.851C421.43 101.192 422.38 101.521 423.474 101.835C425.128 102.327 426.57 102.874 427.801 103.476C429.031 104.063 430.057 104.733 430.877 105.485C431.697 106.237 432.312 107.092 432.723 108.049C433.133 108.992 433.338 110.065 433.338 111.269C433.338 112.526 433.085 113.661 432.579 114.673C432.073 115.671 431.349 116.525 430.405 117.236C429.476 117.934 428.354 118.474 427.042 118.856C425.743 119.226 424.294 119.41 422.694 119.41C421.259 119.41 419.844 119.219 418.449 118.836C417.068 118.453 415.811 117.872 414.676 117.093C413.541 116.3 412.639 115.315 411.969 114.14C411.299 112.95 410.964 111.562 410.964 109.977H416.111C416.111 110.947 416.275 111.774 416.604 112.458C416.945 113.142 417.417 113.702 418.019 114.14C418.62 114.563 419.317 114.878 420.11 115.083C420.917 115.288 421.778 115.391 422.694 115.391C423.897 115.391 424.902 115.22 425.709 114.878C426.529 114.536 427.145 114.058 427.555 113.442C427.965 112.827 428.17 112.116 428.17 111.31ZM447.57 96.8105V100.42H435.061V96.8105H447.57ZM438.67 91.376H443.612V112.868C443.612 113.552 443.708 114.078 443.899 114.447C444.104 114.803 444.385 115.042 444.74 115.165C445.096 115.288 445.513 115.35 445.991 115.35C446.333 115.35 446.661 115.329 446.976 115.288C447.29 115.247 447.543 115.206 447.734 115.165L447.755 118.938C447.345 119.062 446.866 119.171 446.319 119.267C445.786 119.362 445.171 119.41 444.474 119.41C443.339 119.41 442.334 119.212 441.459 118.815C440.584 118.405 439.9 117.742 439.408 116.826C438.916 115.91 438.67 114.693 438.67 113.176V91.376ZM449.949 108.151V107.68C449.949 106.08 450.182 104.597 450.646 103.229C451.111 101.849 451.781 100.652 452.656 99.6406C453.545 98.6152 454.625 97.8223 455.896 97.2617C457.182 96.6875 458.631 96.4004 460.244 96.4004C461.871 96.4004 463.32 96.6875 464.592 97.2617C465.877 97.8223 466.964 98.6152 467.853 99.6406C468.741 100.652 469.418 101.849 469.883 103.229C470.348 104.597 470.58 106.08 470.58 107.68V108.151C470.58 109.751 470.348 111.234 469.883 112.602C469.418 113.969 468.741 115.165 467.853 116.19C466.964 117.202 465.884 117.995 464.612 118.569C463.341 119.13 461.898 119.41 460.285 119.41C458.658 119.41 457.202 119.13 455.917 118.569C454.646 117.995 453.565 117.202 452.677 116.19C451.788 115.165 451.111 113.969 450.646 112.602C450.182 111.234 449.949 109.751 449.949 108.151ZM454.892 107.68V108.151C454.892 109.149 454.994 110.093 455.199 110.981C455.404 111.87 455.726 112.649 456.163 113.319C456.601 113.989 457.161 114.516 457.845 114.898C458.528 115.281 459.342 115.473 460.285 115.473C461.201 115.473 461.994 115.281 462.664 114.898C463.348 114.516 463.908 113.989 464.346 113.319C464.783 112.649 465.104 111.87 465.31 110.981C465.528 110.093 465.638 109.149 465.638 108.151V107.68C465.638 106.695 465.528 105.766 465.31 104.891C465.104 104.002 464.776 103.216 464.325 102.532C463.888 101.849 463.327 101.315 462.644 100.933C461.974 100.536 461.174 100.338 460.244 100.338C459.314 100.338 458.508 100.536 457.824 100.933C457.154 101.315 456.601 101.849 456.163 102.532C455.726 103.216 455.404 104.002 455.199 104.891C454.994 105.766 454.892 106.695 454.892 107.68ZM479.686 101.035V119H474.743V96.8105H479.46L479.686 101.035ZM486.474 96.667L486.433 101.261C486.132 101.206 485.804 101.165 485.448 101.138C485.106 101.11 484.765 101.097 484.423 101.097C483.575 101.097 482.83 101.22 482.188 101.466C481.545 101.698 481.005 102.04 480.567 102.491C480.144 102.929 479.815 103.462 479.583 104.091C479.351 104.72 479.214 105.424 479.173 106.203L478.045 106.285C478.045 104.891 478.182 103.599 478.455 102.409C478.729 101.22 479.139 100.174 479.686 99.2715C480.246 98.3691 480.943 97.665 481.777 97.1592C482.625 96.6533 483.603 96.4004 484.71 96.4004C485.011 96.4004 485.332 96.4277 485.674 96.4824C486.029 96.5371 486.296 96.5986 486.474 96.667ZM498.942 119.41C497.302 119.41 495.818 119.144 494.492 118.61C493.18 118.063 492.059 117.305 491.129 116.334C490.213 115.363 489.509 114.222 489.017 112.909C488.524 111.597 488.278 110.182 488.278 108.664V107.844C488.278 106.107 488.531 104.535 489.037 103.127C489.543 101.719 490.247 100.516 491.149 99.5176C492.052 98.5059 493.118 97.7334 494.349 97.2002C495.579 96.667 496.912 96.4004 498.348 96.4004C499.934 96.4004 501.321 96.667 502.511 97.2002C503.7 97.7334 504.685 98.4854 505.464 99.4561C506.257 100.413 506.845 101.555 507.228 102.881C507.624 104.207 507.822 105.67 507.822 107.27V109.382H490.678V105.834H502.941V105.444C502.914 104.556 502.736 103.722 502.408 102.942C502.094 102.163 501.608 101.534 500.952 101.056C500.296 100.577 499.421 100.338 498.327 100.338C497.507 100.338 496.775 100.516 496.133 100.871C495.504 101.213 494.978 101.712 494.554 102.368C494.13 103.024 493.802 103.817 493.569 104.747C493.351 105.663 493.241 106.695 493.241 107.844V108.664C493.241 109.635 493.371 110.537 493.631 111.371C493.904 112.191 494.301 112.909 494.82 113.524C495.34 114.14 495.969 114.625 496.707 114.98C497.445 115.322 498.286 115.493 499.229 115.493C500.419 115.493 501.479 115.254 502.408 114.775C503.338 114.297 504.145 113.62 504.828 112.745L507.433 115.268C506.954 115.965 506.332 116.635 505.566 117.277C504.801 117.906 503.864 118.419 502.757 118.815C501.663 119.212 500.392 119.41 498.942 119.41Z" fill="white"/>
<path d="M173.454 56.918V63.7051C173.202 64.0387 172.807 64.4049 172.27 64.8037C171.741 65.1943 171.037 65.5321 170.158 65.8169C169.279 66.1017 168.185 66.2441 166.875 66.2441C165.76 66.2441 164.738 66.057 163.811 65.6826C162.883 65.3001 162.081 64.7427 161.406 64.0103C160.738 63.2778 160.222 62.3867 159.855 61.3369C159.489 60.279 159.306 59.0745 159.306 57.7236V56.4907C159.306 55.1479 159.473 53.9517 159.807 52.9019C160.148 51.8439 160.637 50.9487 161.271 50.2163C161.906 49.4839 162.671 48.9305 163.566 48.5562C164.47 48.1737 165.491 47.9824 166.63 47.9824C168.087 47.9824 169.292 48.2266 170.244 48.7148C171.204 49.195 171.944 49.8623 172.465 50.7168C172.986 51.5713 173.316 52.5479 173.454 53.6465H170.451C170.354 53.028 170.162 52.4746 169.877 51.9863C169.601 51.498 169.202 51.1156 168.681 50.8389C168.168 50.554 167.501 50.4116 166.679 50.4116C165.971 50.4116 165.349 50.5459 164.812 50.8145C164.274 51.083 163.827 51.4777 163.469 51.9985C163.119 52.5194 162.854 53.1541 162.675 53.9028C162.496 54.6515 162.407 55.506 162.407 56.4663V57.7236C162.407 58.7002 162.508 59.5669 162.712 60.3237C162.924 61.0806 163.225 61.7194 163.615 62.2402C164.014 62.7611 164.498 63.1558 165.068 63.4243C165.638 63.6847 166.28 63.8149 166.997 63.8149C167.696 63.8149 168.27 63.758 168.718 63.644C169.165 63.522 169.519 63.3796 169.78 63.2168C170.048 63.0459 170.256 62.8831 170.402 62.7285V59.2007H166.704V56.918H173.454ZM188.481 63.5708V66H179.045V63.5708H188.481ZM179.912 48.2266V66H176.848V48.2266H179.912ZM187.248 55.6484V58.041H179.045V55.6484H187.248ZM188.42 48.2266V50.668H179.045V48.2266H188.42ZM198.54 48.2266V66H195.5V48.2266H198.54ZM204.118 48.2266V50.668H189.97V48.2266H204.118ZM218.828 48.2266V66H215.788V48.2266H218.828ZM224.406 48.2266V50.668H210.258V48.2266H224.406ZM238.493 55.6484V58.0776H229.057V55.6484H238.493ZM229.814 48.2266V66H226.75V48.2266H229.814ZM240.849 48.2266V66H237.797V48.2266H240.849ZM256.132 63.5708V66H246.696V63.5708H256.132ZM247.563 48.2266V66H244.499V48.2266H247.563ZM254.899 55.6484V58.041H246.696V55.6484H254.899ZM256.071 48.2266V50.668H246.696V48.2266H256.071ZM276.494 63.5708V66H267.058V63.5708H276.494ZM267.924 48.2266V66H264.86V48.2266H267.924ZM275.261 55.6484V58.041H267.058V55.6484H275.261ZM276.433 48.2266V50.668H267.058V48.2266H276.433ZM281.328 48.2266L285.1 54.7085L288.872 48.2266H292.399L287.028 57.0278L292.534 66H288.969L285.1 59.396L281.23 66H277.653L283.171 57.0278L277.788 48.2266H281.328ZM302.104 48.2266V66H299.064V48.2266H302.104ZM307.683 48.2266V50.668H293.535V48.2266H307.683ZM321.66 63.5708V66H312.224V63.5708H321.66ZM313.09 48.2266V66H310.026V48.2266H313.09ZM320.427 55.6484V58.041H312.224V55.6484H320.427ZM321.599 48.2266V50.668H312.224V48.2266H321.599ZM338.261 48.2266V66H335.197L327.226 53.2681V66H324.162V48.2266H327.226L335.222 60.9829V48.2266H338.261ZM351.262 61.4224C351.262 61.0562 351.205 60.7306 351.091 60.4458C350.985 60.161 350.794 59.9006 350.517 59.6646C350.24 59.4285 349.85 59.2007 349.345 58.981C348.849 58.7531 348.214 58.5212 347.441 58.2852C346.595 58.0247 345.813 57.7358 345.097 57.4185C344.389 57.0929 343.771 56.7186 343.242 56.2954C342.713 55.8641 342.302 55.3717 342.009 54.8184C341.716 54.2568 341.569 53.6099 341.569 52.8774C341.569 52.1532 341.72 51.494 342.021 50.8999C342.33 50.3058 342.766 49.7931 343.327 49.3618C343.897 48.9224 344.568 48.5846 345.341 48.3486C346.114 48.1045 346.969 47.9824 347.905 47.9824C349.223 47.9824 350.358 48.2266 351.311 48.7148C352.271 49.2031 353.007 49.8582 353.52 50.6802C354.041 51.5021 354.301 52.4095 354.301 53.4023H351.262C351.262 52.8164 351.136 52.2996 350.883 51.8521C350.639 51.3963 350.265 51.0382 349.76 50.7778C349.264 50.5174 348.633 50.3872 347.868 50.3872C347.144 50.3872 346.542 50.4971 346.062 50.7168C345.581 50.9365 345.223 51.2336 344.987 51.6079C344.751 51.9823 344.633 52.4054 344.633 52.8774C344.633 53.2111 344.711 53.5163 344.865 53.793C345.02 54.0615 345.256 54.3138 345.573 54.5498C345.891 54.7777 346.289 54.9933 346.77 55.1968C347.25 55.4002 347.815 55.5955 348.466 55.7827C349.451 56.0757 350.31 56.4012 351.042 56.7593C351.774 57.1092 352.385 57.508 352.873 57.9556C353.361 58.4032 353.728 58.9118 353.972 59.4814C354.216 60.043 354.338 60.6818 354.338 61.3979C354.338 62.1466 354.187 62.8221 353.886 63.4243C353.585 64.0184 353.154 64.527 352.592 64.9502C352.039 65.3652 351.372 65.6867 350.59 65.9146C349.817 66.1343 348.955 66.2441 348.002 66.2441C347.148 66.2441 346.306 66.1302 345.476 65.9023C344.654 65.6745 343.905 65.3286 343.229 64.8647C342.554 64.3927 342.017 63.8068 341.618 63.1069C341.219 62.3989 341.02 61.5729 341.02 60.6289H344.084C344.084 61.2067 344.182 61.6991 344.377 62.106C344.58 62.5129 344.861 62.8465 345.219 63.1069C345.577 63.3592 345.992 63.5464 346.464 63.6685C346.944 63.7905 347.457 63.8516 348.002 63.8516C348.719 63.8516 349.317 63.7498 349.797 63.5464C350.285 63.3429 350.651 63.0581 350.896 62.6919C351.14 62.3257 351.262 61.9025 351.262 61.4224ZM360.319 48.2266V66H357.255V48.2266H360.319ZM378.3 56.625V57.6016C378.3 58.9443 378.125 60.1488 377.775 61.2148C377.425 62.2809 376.925 63.1883 376.274 63.937C375.631 64.6857 374.858 65.2594 373.955 65.6582C373.051 66.0488 372.05 66.2441 370.952 66.2441C369.861 66.2441 368.864 66.0488 367.961 65.6582C367.066 65.2594 366.289 64.6857 365.629 63.937C364.97 63.1883 364.458 62.2809 364.091 61.2148C363.733 60.1488 363.554 58.9443 363.554 57.6016V56.625C363.554 55.2822 363.733 54.0819 364.091 53.0239C364.449 51.9578 364.954 51.0505 365.605 50.3018C366.264 49.5449 367.041 48.9712 367.937 48.5806C368.84 48.1818 369.837 47.9824 370.927 47.9824C372.026 47.9824 373.027 48.1818 373.93 48.5806C374.833 48.9712 375.611 49.5449 376.262 50.3018C376.913 51.0505 377.413 51.9578 377.763 53.0239C378.121 54.0819 378.3 55.2822 378.3 56.625ZM375.236 57.6016V56.6006C375.236 55.6077 375.139 54.7329 374.943 53.9761C374.756 53.2111 374.475 52.5723 374.101 52.0596C373.735 51.5387 373.283 51.1481 372.746 50.8877C372.209 50.6191 371.603 50.4849 370.927 50.4849C370.252 50.4849 369.65 50.6191 369.121 50.8877C368.592 51.1481 368.14 51.5387 367.766 52.0596C367.399 52.5723 367.119 53.2111 366.923 53.9761C366.728 54.7329 366.63 55.6077 366.63 56.6006V57.6016C366.63 58.5944 366.728 59.4733 366.923 60.2383C367.119 61.0033 367.403 61.6502 367.778 62.1792C368.16 62.7 368.616 63.0947 369.145 63.3633C369.674 63.6237 370.276 63.7539 370.952 63.7539C371.635 63.7539 372.242 63.6237 372.771 63.3633C373.299 63.0947 373.747 62.7 374.113 62.1792C374.479 61.6502 374.756 61.0033 374.943 60.2383C375.139 59.4733 375.236 58.5944 375.236 57.6016ZM395.463 48.2266V66H392.399L384.428 53.2681V66H381.364V48.2266H384.428L392.424 60.9829V48.2266H395.463ZM419.511 56.625V57.6016C419.511 58.9443 419.336 60.1488 418.986 61.2148C418.636 62.2809 418.136 63.1883 417.485 63.937C416.842 64.6857 416.069 65.2594 415.166 65.6582C414.262 66.0488 413.261 66.2441 412.163 66.2441C411.072 66.2441 410.075 66.0488 409.172 65.6582C408.277 65.2594 407.5 64.6857 406.84 63.937C406.181 63.1883 405.668 62.2809 405.302 61.2148C404.944 60.1488 404.765 58.9443 404.765 57.6016V56.625C404.765 55.2822 404.944 54.0819 405.302 53.0239C405.66 51.9578 406.165 51.0505 406.816 50.3018C407.475 49.5449 408.252 48.9712 409.147 48.5806C410.051 48.1818 411.048 47.9824 412.138 47.9824C413.237 47.9824 414.238 48.1818 415.141 48.5806C416.044 48.9712 416.822 49.5449 417.473 50.3018C418.124 51.0505 418.624 51.9578 418.974 53.0239C419.332 54.0819 419.511 55.2822 419.511 56.625ZM416.447 57.6016V56.6006C416.447 55.6077 416.35 54.7329 416.154 53.9761C415.967 53.2111 415.686 52.5723 415.312 52.0596C414.946 51.5387 414.494 51.1481 413.957 50.8877C413.42 50.6191 412.814 50.4849 412.138 50.4849C411.463 50.4849 410.861 50.6191 410.332 50.8877C409.803 51.1481 409.351 51.5387 408.977 52.0596C408.61 52.5723 408.33 53.2111 408.134 53.9761C407.939 54.7329 407.841 55.6077 407.841 56.6006V57.6016C407.841 58.5944 407.939 59.4733 408.134 60.2383C408.33 61.0033 408.614 61.6502 408.989 62.1792C409.371 62.7 409.827 63.0947 410.356 63.3633C410.885 63.6237 411.487 63.7539 412.163 63.7539C412.846 63.7539 413.452 63.6237 413.981 63.3633C414.51 63.0947 414.958 62.7 415.324 62.1792C415.69 61.6502 415.967 61.0033 416.154 60.2383C416.35 59.4733 416.447 58.5944 416.447 57.6016ZM436.674 48.2266V66H433.61L425.639 53.2681V66H422.575V48.2266H425.639L433.635 60.9829V48.2266H436.674Z" fill="white"/>
<defs>
<radialGradient id="paint0_radial_321_5255" cx="0" cy="0" r="1" gradientUnits="userSpaceOnUse" gradientTransform="translate(37.4905 39.0182) scale(128.139)">
<stop stop-color="white" stop-opacity="0.1"/>
<stop offset="1" stop-color="white" stop-opacity="0"/>
</radialGradient>
</defs>
</svg>
